<svg xmlns="http://www.w3.org/2000/svg" viewBox="0 0 18.71 18.71"><defs><style>.cls-1{fill:#b9a676;}</style></defs><g id="Layer_2" data-name="Layer 2"><g id="Layer_1-2" data-name="Layer 1"><g id="Layer_2-2" data-name="Layer 2"><g id="Layer_1-2-2" data-name="Layer 1-2"><path class="cls-1" d="M18.71,9.36v6.05a3.18,3.18,0,0,1-2.51,3.23,3.94,3.94,0,0,1-.77.07H3.22a3.11,3.11,0,0,1-3.22-3V3.19A3.13,3.13,0,0,1,3.07,0H15.5a3.13,3.13,0,0,1,3.21,3.05V9.36ZM1,9.35H1v6.14a2.17,2.17,0,0,0,2.07,2.27H15.54a2.19,2.19,0,0,0,2.22-2.16V3.19A2.16,2.16,0,0,0,15.63,1H3.23A2.26,2.26,0,0,0,1,3.24Z"/><path class="cls-1" d="M9.59,14.27a6.81,6.81,0,0,1-4.18-1.46,13.57,13.57,0,0,1-2.77-2.74,1,1,0,0,1-.07-1.32A11.81,11.81,0,0,1,7,5a5.68,5.68,0,0,1,5.53.39A12.4,12.4,0,0,1,16.14,8.7a1.07,1.07,0,0,1,0,1.33,11.44,11.44,0,0,1-4.66,3.83A4.94,4.94,0,0,1,9.59,14.27Zm-.23-.95a4.54,4.54,0,0,0,1.82-.39A10.94,10.94,0,0,0,15.3,9.54a.26.26,0,0,0,0-.38,11.6,11.6,0,0,0-3.28-3,4.73,4.73,0,0,0-4.45-.4A10.74,10.74,0,0,0,3.43,9.18c-.12.15-.06.28,0,.41a12.94,12.94,0,0,0,2.78,2.65A5.69,5.69,0,0,0,9.36,13.32Z"/><path class="cls-1" d="M6.68,9.38a2.65,2.65,0,0,1,2.6-2.7h0a2.68,2.68,0,0,1,2.75,2.61h0a2.72,2.72,0,0,1-2.64,2.77,2.67,2.67,0,0,1-2.74-2.6Zm.94,0a1.73,1.73,0,1,0,0-.07v.07Z"/></g></g></g></g></svg>